<svg width="749" height="427" viewBox="0 0 749 427" fill="none" xmlns="http://www.w3.org/2000/svg">
<rect width="749" height="427" fill="white"/>
<path d="M295.514 234.875C294.225 236.34 293.58 237.688 293.58 238.918C293.17 238.918 292.555 239.123 291.734 239.533C291.559 239.709 291.383 240.207 291.207 241.027C291.031 241.203 290.826 241.291 290.592 241.291C290.357 241.291 290.152 241.203 289.977 241.027L289.186 241.994C289.303 242.229 289.742 242.346 290.504 242.346C288.57 246.682 284.322 250.754 277.76 254.562C277.818 254.562 277.848 254.504 277.848 254.387C277.848 254.094 277.643 253.449 277.232 252.453C276.94 252.805 276.383 253.449 275.563 254.387C275.621 254.387 275.914 254.914 276.441 255.969L270.113 261.945C270.465 262.18 270.787 262.297 271.08 262.297L252.535 272.932C251.539 272.58 250.982 272.375 250.865 272.316C250.045 272.316 248.844 272.99 247.262 274.338C247.379 274.338 247.525 274.338 247.701 274.338C248.17 274.338 248.844 274.25 249.723 274.074C251.07 273.781 251.744 273.635 251.744 273.635C251.158 274.572 250.338 275.598 249.283 276.711C248.99 276.359 248.258 276.184 247.086 276.184L215.709 289.631C211.315 291.564 205.279 293.322 197.604 294.904C194.498 296.369 189.986 297.16 184.068 297.277C183.893 297.57 183.805 297.922 183.805 298.332C181.168 298.977 179 299.768 177.301 300.705C175.484 300.412 173.082 299.943 170.094 299.299C169.859 299.709 168.922 300.295 167.281 301.057C167.164 300.822 166.959 300.441 166.666 299.914C166.49 300.031 166.109 300.412 165.524 301.057H160.953C160.484 300.529 158.199 299.621 154.098 298.332L129.4 286.467C128.639 286.467 128.258 286.613 128.258 286.906L127.555 285.852C126.734 285.383 125.475 284.621 123.775 283.566C119.732 278.41 116.627 274.426 114.459 271.613C111.236 267.336 109.332 263.762 108.746 260.891C105.582 255.031 104 247.531 104 238.391C104 213.781 113.082 191.75 131.246 172.297C148.004 154.25 169.273 141.652 195.055 134.504C198.922 132.863 205.279 130.871 214.127 128.527L221.422 128C221.598 128 221.773 128 221.949 128C224.527 128 228.482 129.348 233.814 132.043C239.732 135.09 242.691 138.137 242.691 141.184C242.691 141.77 242.633 142.355 242.516 142.941C244.449 145.988 245.416 148.332 245.416 149.973L244.098 153.225C244.156 153.4 244.332 153.693 244.625 154.104C244.625 154.514 244.068 155.979 242.955 158.498C241.9 161.135 241.373 162.688 241.373 163.156C240.201 164.738 238.883 165.529 237.418 165.529C236.598 165.529 236.041 165.324 235.748 164.914C235.279 165.324 234.576 165.998 233.639 166.936L228.014 165.969H220.455C220.279 165.969 219.811 165.91 219.049 165.793C218.346 165.617 217.906 165.529 217.73 165.529C217.262 165.529 215.592 166.057 212.721 167.111C209.908 168.166 208.297 168.898 207.887 169.309C207.359 168.781 206.744 168.254 206.041 167.727C205.279 168.137 204.898 168.781 204.898 169.66C202.438 169.836 199.537 170.891 196.197 172.824L170.973 183.635C170.387 184.221 169.801 185.158 169.215 186.447C166.344 187.209 162.682 190.109 158.229 195.148L157.262 194.094C156.969 194.563 156.559 195.354 156.031 196.467C154.684 197.287 153.014 199.074 151.021 201.828C149.088 204.523 147.945 206.604 147.594 208.068C147.418 208.068 147.213 208.068 146.979 208.068C146.51 208.068 145.982 208.215 145.396 208.508L137.311 228.371C135.787 232.297 135.025 236.516 135.025 241.027C135.025 245.188 135.611 248.41 136.783 250.695C138.775 254.621 142.994 257.932 149.439 260.627C155.24 263.029 160.807 264.23 166.139 264.23H172.027C176.129 264.23 181.49 263.527 188.111 262.121C195.904 260.422 200.914 259.543 203.141 259.484L226.695 249.904C235.426 246.33 243.482 242.316 250.865 237.863C251.627 237.219 252.652 236.105 253.941 234.523C253.238 234.23 252.33 233.469 251.217 232.238C251.275 232.18 251.305 232.092 251.305 231.975C251.305 231.799 251.217 231.594 251.041 231.359L246.559 231.975C245.269 231.799 243.189 231.242 240.318 230.305C238.619 230.539 236.187 230.891 233.023 231.359C232.672 231.125 231.793 230.568 230.387 229.689C229.801 230.451 229.185 230.832 228.541 230.832H221.861C221.686 230.949 221.598 231.184 221.598 231.535C221.773 232.004 221.979 232.238 222.213 232.238C222.213 232.238 221.861 232.004 221.158 231.535C220.514 231.066 220.104 230.832 219.928 230.832H216.852C216.734 231.184 216.412 231.711 215.885 232.414C214.537 232.414 211.402 232.063 206.48 231.359C206.363 231.359 205.397 231.477 203.58 231.711C201.764 231.945 200.709 232.063 200.416 232.063C199.186 233.41 198.043 234.084 196.988 234.084C195.465 234.084 194.293 233.908 193.473 233.557L186.441 235.139C183.102 235.139 180.699 234.348 179.234 232.766V230.656C178.59 230.188 177.887 229.396 177.125 228.283C176.598 228.166 175.631 227.668 174.225 226.789C174.225 226.027 174.283 225.441 174.4 225.031C174.225 224.68 173.961 223.83 173.609 222.482C173.551 222.424 173.521 222.365 173.521 222.307C173.521 221.955 173.756 221.486 174.224 220.9L172.027 218.703C172.672 217.004 172.994 214.25 172.994 210.441C173.404 209.855 173.99 208.801 174.752 207.277C174.752 207.219 174.752 207.131 174.752 207.014C174.752 206.428 174.283 205.607 173.346 204.553C174.81 203.674 175.748 202.531 176.158 201.125L181.783 199.016L182.135 199.631L245.68 197.873C246.031 197.873 246.412 197.873 246.822 197.873C258.834 197.873 271.724 203.088 285.494 213.518L295.514 227.756C295.631 228.283 295.689 229.133 295.689 230.305C295.689 231.535 295.631 233.059 295.514 234.875ZM202.701 169.484L200.504 168.693C199.977 169.396 199.684 169.924 199.625 170.275C199.625 170.275 199.684 170.275 199.801 170.275C200.621 169.924 201.588 169.66 202.701 169.484Z" fill="#F49030"/>
<path d="M484.853 186.771C484.853 186.537 484.824 186.42 484.766 186.42C484.59 186.42 483.594 190.873 481.777 199.779C472.871 223.217 463.496 239.154 453.652 247.592C453.652 248.295 453.301 249.086 452.598 249.965C447.851 254.242 440.762 260.746 431.328 269.477C424.121 274.809 416.006 279.994 406.982 285.033C406.279 285.443 405.517 286.117 404.697 287.055C403.584 287.465 402.558 288.373 401.621 289.779C400.683 289.896 397.607 290.805 392.392 292.504L384.219 293.383C380.937 293.734 379.297 293.939 379.297 293.998C379.297 294.057 379.443 294.086 379.736 294.086C377.51 294.086 372.998 292.592 366.201 289.604V289.164C358.525 284.008 352.373 277.826 347.744 270.619L343.965 261.303C342.558 257.729 341.855 254.975 341.855 253.041C341.855 252.924 341.855 252.836 341.855 252.777L338.867 234.057V225.004C338.867 222.367 340.244 214.193 342.998 200.482C346.221 190.99 348.037 185.834 348.447 185.014C351.26 179.096 355.332 174.672 360.664 171.742C361.191 171.859 362.158 172.211 363.564 172.797C363.799 173.031 364.912 173.793 366.904 175.082L370.683 184.926C369.98 186.391 369.219 188.559 368.398 191.43C364.414 196.176 361.689 200.951 360.224 205.756C359.58 207.748 358.789 211.996 357.851 218.5L358.291 235.199C360.635 251.43 365.293 260.658 372.266 262.885C375.371 263.822 376.924 264.35 376.924 264.467C376.924 264.525 376.894 264.555 376.836 264.555C376.953 264.555 377.92 264.672 379.736 264.906C381.552 265.141 382.519 265.258 382.636 265.258C383.574 265.082 385.566 264.701 388.613 264.115C409.59 259.896 430.185 245.6 450.4 221.225C453.33 217.65 457.373 211.322 462.529 202.24C462.881 201.303 463.877 198.373 465.517 193.451C465.869 191.752 466.045 190.053 466.045 188.354C466.045 186.83 465.898 185.307 465.605 183.783C465.547 183.607 465.517 183.432 465.517 183.256C465.517 182.904 465.635 182.406 465.869 181.762C465.4 180.883 465.166 180.092 465.166 179.389C465.166 175.756 467.539 171.42 472.285 166.381L474.482 166.645C475.01 166.059 475.683 165.59 476.504 165.238C477.383 166.996 478.174 168.256 478.877 169.018H481.162L484.062 174.115C484.59 176.986 484.853 178.686 484.853 179.213L484.853 186.771ZM387.295 154.516C386.474 153.812 386.064 152.611 386.064 150.912C386.064 150.678 386.064 150.443 386.064 150.209C386.884 148.744 388.349 146.342 390.459 143.002C390.224 143.119 389.814 143.354 389.228 143.705C388.584 142.943 388.203 142.504 388.086 142.387L390.986 142.826L390.81 141.244H394.15C395.205 140.482 396.728 139.984 398.72 139.75C400.771 141.098 404.17 142.855 408.916 145.023C409.209 145.434 409.355 146.342 409.355 147.748C410 148.217 410.791 148.891 411.728 149.77C411.552 152.523 411.435 153.9 411.377 153.9C411.377 153.9 411.377 153.813 411.377 153.637C410.908 154.223 410.176 155.307 409.179 156.889C404.199 158.588 399.277 159.438 394.414 159.438L387.295 154.516ZM448.115 145.639C449.111 146.459 449.609 147.865 449.609 149.857C448.847 151.439 447.558 153.9 445.742 157.24C446.093 157.24 446.445 157.006 446.797 156.537C447.5 157.299 447.881 157.797 447.939 158.031C447.763 157.797 446.797 157.68 445.039 157.68L445.39 159.262C444.746 159.262 443.75 159.32 442.402 159.437C441.289 160.258 439.707 160.785 437.656 161.02C435.605 159.848 432.148 158.412 427.285 156.713C426.758 156.303 426.494 155.424 426.494 154.076C425.791 153.607 424.941 152.934 423.945 152.055C423.945 149.477 424.004 148.129 424.121 148.012C424.121 148.012 424.121 148.07 424.121 148.187C424.531 147.543 425.117 146.43 425.879 144.848C431.035 142.797 435.927 141.596 440.556 141.244L448.115 145.639Z" fill="#F49030"/>
<path d="M645.486 265.658C645.486 265.893 644.607 266.625 642.85 267.855C641.092 269.203 640.213 270.551 640.213 271.898C640.213 272.66 640.477 273.568 641.004 274.623C640.477 275.502 638.689 276.703 635.643 278.227C632.244 279.867 630.164 281.127 629.402 282.006C625.828 283.588 620.438 285.99 613.23 289.213L610.418 289.564C608.602 289.799 607.342 289.916 606.639 289.916L598.025 291.762C594.158 291.762 591.053 291.908 588.709 292.201L585.193 292.641L576.58 292.113C576.521 292.113 576.463 292.113 576.404 292.113C576.111 292.113 575.672 292.348 575.086 292.816C573.855 292.992 571.6 293.168 568.318 293.344L563.221 293.52C563.104 293.52 562.986 293.52 562.869 293.52C559.529 293.52 552.264 292.084 541.072 289.213C538.494 288.51 535.037 287.016 530.701 284.73C528.182 282.68 526.424 280.453 525.428 278.051C523.143 276 522 273.539 522 270.668C522 268.031 522.938 263.344 524.812 256.605C525.75 255.316 527.273 253.529 529.383 251.244C542.684 241.752 561.639 234.545 586.248 229.623C587.244 229.447 593.367 228.422 604.617 226.547C605.965 226.312 606.99 225.844 607.693 225.141L610.242 150.434C610.359 150.199 610.564 149.496 610.857 148.324C611.385 144.633 612.234 140.385 613.406 135.58C617.566 129.311 622.02 126.117 626.766 126C633.035 128.988 636.17 134.73 636.17 143.227C636.17 143.988 636.17 144.809 636.17 145.688C636.287 146.215 636.404 147.035 636.521 148.148C636.873 148.383 637.283 149.057 637.752 150.17L637.049 240.609L634.061 251.947C633.943 252.006 633.504 252.035 632.742 252.035C631.98 252.035 630.779 252.006 629.139 251.947C627.439 254.115 625.418 255.199 623.074 255.199C622.898 255.199 621.639 254.965 619.295 254.496C617.01 253.969 615.779 253.705 615.604 253.705L587.039 257.045C586.102 257.045 585.369 256.723 584.842 256.078L565.154 262.758C565.037 262.875 564.92 263.08 564.803 263.373L588.445 264.34L605.32 263.725L633.885 259.77C635.877 260.121 637.605 260.297 639.07 260.297C639.949 260.297 640.711 260.209 641.355 260.033L642.762 261.791L641.531 263.9C642.234 264.428 643.553 265.014 645.486 265.658Z" fill="#F49030"/>
</svg>
